<?xml version="1.0" standalone="no"?>
<!DOCTYPE svg PUBLIC "-//W3C//DTD SVG 20010904//EN"
 "http://www.w3.org/TR/2001/REC-SVG-20010904/DTD/svg10.dtd">
<svg version="1.0" xmlns="http://www.w3.org/2000/svg"
 width="500.000000pt" height="485.000000pt" viewBox="0 0 500.000000 485.000000"
 preserveAspectRatio="xMidYMid meet">

<g transform="translate(0.000000,485.000000) scale(0.100000,-0.100000)"
fill="#000000" stroke="none">
<path d="M1900 4745 l-95 -23 197 -1 c185 -1 198 0 208 18 5 11 10 22 10 25 0
3 -51 6 -112 5 -82 0 -139 -7 -208 -24z"/>
<path d="M2610 4750 c10 -19 20 -20 208 -19 146 1 187 3 157 10 -22 6 -56 14
-76 19 -20 6 -96 10 -168 10 -129 0 -131 0 -121 -20z"/>
<path d="M2662 4663 c3 -17 27 -18 313 -20 l310 -2 -50 19 c-44 16 -83 19
-313 19 -246 1 -263 0 -260 -16z"/>
<path d="M1600 4652 c-34 -16 -24 -17 259 -20 294 -2 310 -1 311 31 0 4 -120
7 -267 6 -228 -1 -273 -3 -303 -17z"/>
<path d="M2406 4653 c-11 -11 -6 -23 9 -23 8 0 15 4 15 9 0 13 -16 22 -24 14z"/>
<path d="M2847 4592 c-143 -2 -147 -3 -137 -22 10 -19 23 -20 380 -20 204 0
370 4 370 8 0 5 -16 16 -36 25 -37 18 -68 19 -577 9z"/>
<path d="M1560 4580 c-102 -4 -142 -9 -165 -22 -29 -16 -14 -17 341 -18 l371
0 12 26 11 26 -217 -3 c-120 -2 -279 -6 -353 -9z"/>
<path d="M2360 4571 c-16 -31 -14 -32 55 -29 36 1 65 4 65 6 0 2 -5 12 -10 23
-8 14 -21 19 -55 19 -34 0 -47 -5 -55 -19z"/>
<path d="M2760 4498 c1 -42 -2 -41 436 -34 230 4 420 9 422 11 2 2 -10 11 -27
19 -26 14 -86 16 -431 16 -313 0 -400 -3 -400 -12z"/>
<path d="M1241 4473 l-36 -23 424 3 424 2 15 23 15 23 -403 -3 c-396 -3 -403
-3 -439 -25z"/>
<path d="M2310 4480 c-10 -19 -8 -20 105 -20 113 0 115 0 103 20 -11 18 -24
20 -105 20 -82 0 -93 -2 -103 -20z"/>
<path d="M3090 4420 c-162 -3 -290 -8 -285 -11 6 -4 46 -14 90 -24 70 -15 116
-17 370 -11 160 3 337 6 394 6 l105 0 -34 25 c-38 28 17 27 -640 15z"/>
<path d="M2270 4401 c-21 -41 -15 -43 118 -40 70 1 141 4 159 7 29 4 31 6 21
28 -11 24 -14 24 -149 24 -126 0 -139 -2 -149 -19z"/>
<path d="M1108 4385 c-16 -13 -28 -25 -28 -27 0 -2 177 -2 392 -1 327 2 407 6
476 20 45 10 82 21 82 25 0 5 -201 8 -447 8 l-448 -1 -27 -24z"/>
<path d="M2394 4322 c-129 -2 -164 -6 -174 -17 -7 -9 -11 -18 -8 -20 3 -3 98
-4 212 -3 198 3 206 4 194 21 -17 22 -22 23 -224 19z"/>
<path d="M3145 4310 c45 -17 85 -19 389 -19 338 -1 339 -1 321 19 -18 19 -30
20 -389 19 l-371 -1 50 -18z"/>
<path d="M1069 4312 c-51 -2 -71 -7 -85 -23 -17 -19 -15 -19 312 -19 279 1
336 3 374 17 25 9 50 20 55 25 9 8 -473 8 -656 0z"/>
<path d="M3325 4240 c4 -6 19 -17 36 -25 24 -13 78 -15 319 -15 159 1 290 5
290 9 0 4 -8 15 -18 25 -17 14 -53 16 -326 16 -195 -1 -305 -4 -301 -10z"/>
<path d="M2176 4216 l-21 -21 254 -3 c140 -1 256 0 258 2 3 3 2 14 -2 26 -7
21 -9 21 -238 19 -218 -3 -232 -4 -251 -23z"/>
<path d="M892 4214 c-12 -8 -22 -19 -22 -25 0 -5 114 -9 288 -9 284 1 288 1
332 25 l45 24 -310 1 c-265 0 -314 -2 -333 -16z"/>
<path d="M3500 4140 c23 -18 42 -20 294 -20 268 0 269 0 251 20 -17 19 -31 20
-294 20 -276 0 -276 0 -251 -20z"/>
<path d="M2133 4138 c-33 -43 -42 -41 276 -35 167 3 305 7 307 10 3 2 2 12 -2
21 -5 14 -36 16 -289 16 -214 0 -285 -3 -292 -12z"/>
<path d="M797 4122 c-10 -10 -17 -22 -17 -26 0 -4 118 -6 263 -4 251 3 264 4
297 25 l35 23 -281 0 c-260 0 -282 -1 -297 -18z"/>
<path d="M3629 4050 c22 -19 39 -20 274 -20 249 0 250 0 232 20 -17 19 -31 20
-274 20 -256 -1 -256 -1 -232 -20z"/>
<path d="M2128 4053 c-35 -3 -51 -9 -58 -24 -10 -18 -7 -19 55 -19 36 0 65 -2
65 -4 0 -2 3 -11 6 -20 5 -14 -5 -16 -75 -16 -69 0 -82 -3 -91 -19 -5 -11 -10
-23 -10 -26 0 -4 45 -5 100 -3 99 3 110 0 110 -33 0 -5 -54 -9 -120 -9 -109 0
-120 -2 -130 -20 -10 -20 -8 -20 129 -20 142 0 151 -2 151 -41 0 -5 -69 -9
-159 -9 -132 0 -160 -3 -165 -15 -3 -8 -4 -18 -3 -22 1 -4 74 -8 162 -8 158 0
160 0 163 -22 3 -23 3 -23 -160 -24 -195 -2 -190 -2 -205 -12 -33 -21 0 -27
180 -29 l192 -3 2 -64 3 -64 -83 7 c-45 3 -119 9 -165 13 -132 10 -106 23 47
23 130 0 141 1 151 20 11 20 8 20 -184 20 -186 0 -195 -1 -201 -20 -7 -22 -28
-24 -152 -11 -57 5 -73 4 -73 -6 0 -7 7 -55 15 -106 31 -198 32 -212 20 -239
-7 -17 6 -18 184 -18 178 0 191 1 201 19 15 30 14 31 -47 32 l-58 1 65 14 c36
7 116 17 178 20 l112 7 1 -44 c1 -24 2 -57 4 -74 1 -16 6 -149 10 -295 4 -146
8 -282 9 -304 l2 -38 -66 6 c-36 3 -78 8 -95 10 -16 3 -68 10 -115 16 -91 12
-318 61 -391 84 l-44 14 69 1 c53 1 72 5 82 19 7 9 14 20 14 25 0 4 -69 6
-152 3 -84 -2 -171 1 -193 6 -39 9 -46 6 -207 -79 -92 -48 -168 -91 -168 -95
0 -4 24 -33 54 -65 113 -123 107 -114 91 -130 -26 -26 -18 -39 20 -35 34 4 75
-17 75 -40 0 -4 -34 -8 -75 -8 -41 0 -75 -4 -75 -9 0 -5 -3 -16 -6 -25 -5 -14
8 -16 103 -16 103 0 133 -7 133 -32 0 -4 -63 -8 -140 -8 -78 0 -140 -4 -140
-9 0 -5 -2 -15 -5 -23 -4 -11 26 -12 161 -10 190 3 169 11 265 -99 l49 -57
-58 -27 c-31 -16 -83 -41 -116 -57 l-59 -30 6 24 6 23 -192 -3 c-185 -3 -206
-6 -207 -34 0 -5 87 -8 193 -8 l192 0 -32 -20 c-29 -17 -53 -20 -199 -21 -155
-2 -168 -3 -188 -23 l-21 -21 133 -3 c72 -1 132 -6 132 -10 0 -24 -49 -34
-166 -33 -112 0 -125 -1 -134 -19 -5 -10 -10 -21 -10 -24 0 -3 42 -6 93 -6
l92 0 -25 -20 c-20 -16 -41 -20 -106 -20 -76 0 -81 -1 -92 -25 l-12 -25 58 0
57 -1 -30 -24 c-22 -19 -40 -25 -69 -23 -28 1 -42 -3 -53 -17 -13 -18 -12 -20
6 -23 31 -5 25 -18 -15 -37 -20 -9 -39 -26 -41 -36 -3 -10 -9 -19 -14 -19 -5
0 -9 -8 -9 -17 0 -10 -7 -27 -15 -37 -22 -29 -19 -36 14 -36 24 0 41 -14 41
-36 0 -2 -22 -4 -49 -4 -36 0 -51 -4 -55 -16 -9 -24 -2 -27 56 -27 58 1 88
-10 88 -32 0 -12 -17 -15 -88 -15 -85 0 -112 -8 -112 -35 0 -7 40 -12 112 -13
92 -3 115 -6 126 -20 12 -16 3 -17 -127 -20 -128 -2 -142 -4 -151 -22 -10 -20
-7 -20 178 -20 160 0 192 2 203 16 10 12 10 17 1 23 -14 9 -1 21 63 63 60 38
194 118 199 118 3 0 32 16 65 35 160 94 387 170 641 215 55 10 428 7 485 -3
206 -37 335 -65 460 -99 83 -22 187 -49 232 -59 46 -10 115 -28 155 -39 79
-21 277 -58 453 -85 61 -9 137 -20 171 -26 33 -5 77 -9 97 -9 26 0 39 -6 47
-20 10 -19 21 -20 205 -20 193 0 195 0 183 20 -12 19 -24 20 -159 20 -80 0
-149 3 -152 6 -3 4 -2 15 4 25 9 17 23 19 135 19 114 0 125 2 122 18 -3 15
-19 18 -113 22 -109 5 -112 6 -106 40 0 6 39 10 91 10 88 0 90 1 78 20 -11 17
-24 20 -75 20 -34 0 -65 4 -68 10 -3 5 -41 10 -83 10 -215 0 -570 54 -827 124
-27 8 -95 26 -150 41 -55 15 -150 42 -210 60 -61 18 -128 36 -150 40 -22 4
-53 11 -70 15 -68 21 -268 49 -385 55 -249 14 -548 -32 -818 -124 -80 -28
-147 -49 -148 -48 -10 10 125 92 250 153 289 142 494 192 812 201 136 4 229 2
285 -7 46 -6 100 -14 119 -16 67 -9 306 -64 390 -90 47 -15 191 -63 320 -106
129 -44 271 -91 315 -106 l80 -26 -43 -6 c-42 -5 -42 -5 -27 -27 16 -22 20
-23 206 -23 104 0 189 3 189 6 0 3 -4 13 -9 23 -7 13 5 40 50 116 32 54 59 99
59 101 0 1 -57 3 -127 3 -71 0 -141 5 -158 10 l-30 9 33 1 c35 1 39 8 20 34
-11 14 -42 16 -210 19 -108 2 -199 6 -203 10 -22 22 17 28 191 28 101 0 184 4
184 8 0 26 -30 32 -167 32 -81 0 -143 4 -143 9 0 5 7 17 16 25 12 13 39 16
130 16 63 0 114 3 114 8 -1 27 -28 37 -95 36 -83 -1 -92 2 -69 27 12 14 31 19
66 19 52 0 60 10 26 34 l-22 16 59 62 c33 35 132 137 220 227 l159 163 -29 22
c-16 11 -61 43 -99 70 -39 27 -89 62 -112 78 l-40 29 -105 -35 c-58 -19 -160
-49 -227 -65 -113 -29 -133 -31 -301 -31 -100 0 -181 -2 -181 -5 0 -23 26 -41
54 -38 22 3 27 1 16 -5 -14 -9 -91 -21 -265 -39 -38 -5 -137 -8 -220 -8 l-150
0 -3 379 -2 379 122 -6 c129 -6 264 -25 253 -36 -4 -3 -21 -6 -38 -7 -100 -2
-108 -3 -99 -20 8 -14 35 -17 201 -18 l191 -1 1 45 c0 25 2 56 4 70 7 59 17
236 13 245 -3 11 -9 11 -130 1 -82 -8 -86 -7 -93 13 -6 20 -12 21 -201 21
-107 0 -194 -3 -194 -6 0 -3 4 -13 10 -23 8 -16 23 -18 160 -13 108 3 150 2
150 -7 0 -6 -16 -11 -37 -11 -21 0 -92 -7 -158 -15 -171 -21 -155 -26 -155 50
0 61 1 65 23 65 77 1 353 13 356 16 2 2 -1 10 -7 17 -9 11 -48 13 -192 9
l-180 -4 0 26 0 26 166 0 c147 0 165 2 160 16 -3 9 -6 20 -6 25 0 6 -60 9
-155 7 -140 -3 -155 -1 -155 14 0 9 5 20 12 24 9 6 154 14 252 14 15 0 16 3 6
15 -10 12 -37 15 -125 15 -61 0 -114 3 -117 6 -3 3 -4 14 -1 25 5 17 15 19
105 19 96 0 98 1 88 20 -9 17 -21 20 -85 20 -41 0 -75 4 -75 9 0 33 14 41 66
41 52 0 54 1 44 20 -10 19 -20 20 -303 18 -161 -1 -313 -3 -339 -5z m1752
-1530 c0 -5 -36 -46 -80 -93 -80 -85 -80 -85 -96 -62 -16 21 -21 22 -205 22
-104 0 -189 -3 -189 -6 0 -3 5 -14 10 -25 10 -18 23 -19 200 -19 188 0 190 0
178 -20 -12 -19 -24 -20 -175 -20 -90 0 -163 -3 -163 -6 0 -3 5 -14 10 -25 10
-17 22 -19 137 -19 125 0 126 0 108 -20 -16 -17 -31 -20 -112 -20 -51 0 -93
-3 -93 -6 0 -3 5 -14 11 -25 9 -17 20 -20 62 -19 72 2 72 2 52 -20 -10 -11
-31 -20 -46 -20 -26 0 -28 -3 -24 -27 4 -23 -5 -38 -50 -87 -53 -57 -56 -59
-82 -47 -76 35 -406 133 -528 156 -44 8 -91 17 -105 20 -103 21 -286 36 -370
30 -129 -9 -348 -41 -444 -65 -43 -11 -84 -20 -91 -20 -7 0 -64 57 -128 127
-97 106 -114 129 -106 145 8 15 6 18 -15 18 -13 0 -34 9 -47 20 l-24 19 62 1
c53 0 63 3 68 20 8 25 10 25 121 1 49 -10 139 -24 199 -31 61 -6 124 -13 140
-16 17 -2 73 -6 125 -9 52 -4 101 -8 109 -11 8 -3 140 -5 294 -4 233 0 317 4
501 26 122 14 239 29 261 34 22 5 102 10 178 10 134 0 137 1 125 20 -7 10 -10
21 -8 23 6 5 199 55 218 56 6 1 12 -2 12 -6z m-2355 -56 c11 -3 -7 -5 -40 -6
-49 -1 -62 3 -72 18 -11 18 -10 18 40 6 29 -8 61 -16 72 -18z"/>
<path d="M710 4025 l-24 -25 253 5 c208 4 257 8 277 21 13 9 24 18 24 20 0 2
-114 4 -253 4 l-254 0 -23 -25z"/>
<path d="M3743 3960 c23 -19 40 -20 258 -20 231 0 232 0 214 20 -17 19 -31 20
-258 20 l-240 0 26 -20z"/>
<path d="M637 3942 c-10 -10 -17 -22 -17 -26 0 -3 105 -4 233 -1 213 5 234 7
252 25 19 20 18 20 -216 20 -216 0 -237 -2 -252 -18z"/>
<path d="M3946 3890 c-108 -5 -117 -6 -101 -20 15 -12 57 -15 232 -15 117 0
213 3 213 6 0 34 -77 40 -344 29z"/>
<path d="M572 3858 c-7 -7 -12 -16 -12 -20 0 -4 95 -8 211 -8 196 0 213 1 236
20 l26 20 -225 0 c-161 0 -227 -3 -236 -12z"/>
<path d="M3920 3804 c0 -3 5 -14 10 -25 10 -18 23 -19 215 -19 162 0 205 3
205 13 0 33 -23 37 -227 37 -112 0 -203 -3 -203 -6z"/>
<path d="M700 3783 c-150 -3 -177 -6 -187 -20 -7 -9 -13 -19 -13 -22 0 -3 90
-5 200 -5 178 1 203 3 220 19 11 10 20 21 20 25 0 7 0 7 -240 3z"/>
<path d="M4071 3710 c-71 -4 -82 -7 -68 -18 18 -16 24 -16 240 -14 166 2 168
2 157 23 -11 19 -19 20 -128 17 -64 -2 -155 -5 -201 -8z"/>
<path d="M450 3670 c-11 -20 -8 -20 189 -20 190 0 201 1 211 20 11 20 8 20
-189 20 -190 0 -201 -1 -211 -20z"/>
<path d="M4060 3622 c0 -27 30 -32 212 -32 103 0 188 2 188 4 0 2 -3 11 -6 20
-5 14 -32 16 -200 16 -107 0 -194 -4 -194 -8z"/>
<path d="M400 3580 c-11 -20 -8 -20 178 -20 176 0 190 1 207 20 18 20 17 20
-178 20 -186 0 -197 -1 -207 -20z"/>
<path d="M4132 3520 c12 -19 24 -20 195 -20 101 0 183 4 183 8 0 27 -30 32
-207 32 -181 0 -183 0 -171 -20z"/>
<path d="M535 3512 c-163 -2 -184 -6 -185 -34 0 -5 80 -8 178 -8 162 0 180 2
196 19 16 17 16 19 -1 22 -10 2 -94 3 -188 1z"/>
<path d="M4182 3430 c12 -19 24 -20 190 -20 98 0 178 2 178 4 0 2 -3 11 -6 20
-5 14 -32 16 -190 16 -182 0 -184 0 -172 -20z"/>
<path d="M380 3422 c-49 -3 -69 -13 -70 -34 0 -5 79 -8 175 -8 162 0 175 1
185 19 5 11 10 21 10 23 0 4 -228 4 -300 0z"/>
<path d="M4397 3362 c-148 -2 -168 -4 -163 -18 3 -9 6 -18 6 -20 0 -2 78 -4
174 -4 170 0 174 1 169 20 -3 11 -8 21 -12 23 -3 1 -82 1 -174 -1z"/>
<path d="M333 3332 c-30 -2 -46 -9 -53 -23 -10 -18 -6 -19 164 -19 152 0 175
2 180 16 4 9 4 19 2 22 -6 5 -231 8 -293 4z"/>
<path d="M4274 3263 c3 -8 6 -19 6 -23 0 -7 329 -2 338 5 1 1 0 10 -4 19 -6
15 -26 17 -176 16 -146 -2 -169 -4 -164 -17z"/>
<path d="M250 3230 c-6 -10 -10 -21 -10 -24 0 -3 73 -6 163 -6 164 0 187 5
187 37 0 11 -34 13 -165 12 -150 0 -166 -2 -175 -19z"/>
<path d="M4312 3168 c3 -23 5 -23 171 -26 100 -1 167 1 167 7 0 39 -7 41 -177
41 l-164 0 3 -22z"/>
<path d="M2870 3174 c0 -3 5 -14 10 -25 10 -18 23 -19 200 -19 105 0 190 3
190 6 0 3 -5 14 -10 25 -10 18 -23 19 -200 19 -105 0 -190 -3 -190 -6z"/>
<path d="M1713 3162 c-90 -2 -104 -5 -113 -22 -10 -20 -6 -20 179 -20 178 0
191 1 201 19 5 11 10 22 10 24 0 5 -74 5 -277 -1z"/>
<path d="M220 3135 c-7 -19 -3 -20 158 -23 91 -1 166 -1 167 0 2 2 5 12 7 23
3 19 -3 20 -161 20 -154 0 -164 -1 -171 -20z"/>
<path d="M4340 3087 c0 -28 23 -32 178 -29 153 3 160 4 155 22 -5 19 -15 20
-169 20 -128 0 -164 -3 -164 -13z"/>
<path d="M2922 3070 c12 -19 24 -20 206 -20 190 0 193 0 182 20 -10 19 -21 20
-205 20 -193 0 -195 0 -183 -20z"/>
<path d="M1562 3068 c-20 -20 -14 -34 16 -32 15 0 99 2 187 2 148 2 161 3 173
22 12 20 10 20 -176 20 -133 0 -192 -4 -200 -12z"/>
<path d="M197 3050 c-5 -19 0 -20 158 -20 130 0 164 3 168 14 3 8 3 17 0 20
-4 3 -77 6 -164 6 -148 0 -157 -1 -162 -20z"/>
<path d="M4387 3012 c-9 -2 -17 -12 -17 -23 0 -18 9 -19 164 -19 l163 0 -5 25
-4 25 -142 -2 c-78 -2 -149 -4 -159 -6z"/>
<path d="M3037 3002 c-57 -2 -68 -6 -63 -18 3 -9 6 -18 6 -20 0 -2 88 -4 196
-4 l196 0 -15 23 c-14 21 -21 22 -133 22 -66 0 -150 -1 -187 -3z"/>
<path d="M1710 2992 c-160 -2 -187 -5 -197 -19 -7 -9 -13 -19 -13 -22 0 -3 85
-5 190 -3 179 3 190 4 201 23 6 12 9 21 7 22 -2 1 -86 1 -188 -1z"/>
<path d="M330 2982 c-138 -2 -159 -7 -160 -34 0 -5 74 -8 165 -8 155 0 165 1
165 19 0 10 -6 20 -12 22 -7 2 -78 3 -158 1z"/>
<path d="M4392 2908 c3 -23 5 -23 165 -26 l163 -2 -9 22 c-8 22 -12 23 -165
26 l-157 3 3 -23z"/>
<path d="M3010 2912 c0 -4 7 -15 14 -24 12 -16 34 -18 204 -18 l191 0 -8 23
c-8 22 -11 22 -205 24 -108 0 -196 -2 -196 -5z"/>
<path d="M1515 2902 c-39 -3 -65 -16 -65 -33 0 -5 85 -9 190 -9 177 0 190 1
200 19 5 11 10 22 10 26 0 6 -253 3 -335 -3z"/>
<path d="M160 2875 c-7 -19 -3 -20 143 -23 83 -1 157 0 165 3 7 3 12 13 10 22
-3 16 -19 18 -157 18 -144 0 -154 -1 -161 -20z"/>
<path d="M4410 2815 l0 -25 161 0 160 0 -3 23 c-3 22 -6 22 -160 25 l-158 3 0
-26z"/>
<path d="M3072 2805 l11 -25 194 0 c106 0 193 3 193 6 0 3 -5 14 -10 25 -10
18 -23 19 -205 19 l-195 0 12 -25z"/>
<path d="M1500 2812 c-56 -2 -78 -7 -87 -19 -7 -9 -13 -19 -13 -22 0 -6 367
-3 386 4 6 2 14 13 17 25 5 21 4 21 -111 18 -64 -2 -151 -4 -192 -6z"/>
<path d="M149 2808 c0 -2 -2 -13 -5 -25 l-4 -23 160 0 160 0 0 25 0 25 -155 0
c-85 0 -155 -1 -156 -2z"/>
<path d="M4424 2734 c3 -8 6 -20 6 -25 0 -5 68 -9 156 -9 l155 0 -3 23 c-3 22
-6 22 -162 25 -142 2 -158 1 -152 -14z"/>
<path d="M3110 2733 c0 -5 6 -16 14 -25 10 -14 28 -16 112 -14 54 2 141 4 192
5 90 1 92 2 80 21 -12 19 -24 20 -205 20 -106 0 -193 -3 -193 -7z"/>
<path d="M140 2710 c0 -5 -3 -15 -6 -24 -5 -14 12 -16 155 -16 l161 0 0 26 0
25 -155 -2 c-85 -1 -155 -5 -155 -9z"/>
<path d="M4432 2638 c3 -23 5 -23 155 -23 83 0 155 3 158 7 4 4 5 14 2 23 -5
13 -31 15 -162 15 l-156 0 3 -22z"/>
<path d="M130 2605 l0 -25 155 0 155 0 0 25 0 25 -155 0 -155 0 0 -25z"/>
<path d="M4440 2550 c0 -19 7 -20 155 -20 148 0 155 1 155 20 0 19 -7 20 -155
20 -148 0 -155 -1 -155 -20z"/>
<path d="M212 2532 c-82 -2 -93 -5 -90 -20 3 -15 20 -17 158 -17 148 0 155 1
155 20 0 22 -19 23 -223 17z"/>
<path d="M4440 2460 c0 -19 7 -20 155 -20 148 0 155 1 155 20 0 19 -7 20 -155
20 -148 0 -155 -1 -155 -20z"/>
<path d="M124 2428 c1 -23 2 -23 156 -23 153 0 155 0 158 23 l3 22 -159 0
c-159 0 -159 0 -158 -22z"/>
<path d="M4437 2393 c-4 -3 -7 -15 -7 -25 0 -17 12 -18 160 -18 l160 0 0 25 0
25 -153 0 c-85 0 -157 -3 -160 -7z"/>
<path d="M263 2362 c-125 -2 -133 -4 -133 -22 0 -19 7 -20 154 -20 148 0 184
7 160 30 -15 13 -44 15 -181 12z"/>
<path d="M4437 2303 c-4 -3 -7 -15 -7 -25 0 -17 12 -18 160 -18 l160 0 0 25 0
25 -153 0 c-85 0 -157 -3 -160 -7z"/>
<path d="M273 2272 c-135 -2 -143 -4 -143 -22 0 -19 7 -20 164 -20 157 0 164
1 159 19 -6 25 -15 26 -180 23z"/>
<path d="M4420 2201 c-5 -11 -10 -22 -10 -25 0 -3 74 -6 165 -6 l165 0 0 25 0
25 -155 0 c-142 0 -155 -1 -165 -19z"/>
<path d="M290 2180 c-129 -4 -145 -7 -146 -22 -2 -17 12 -18 163 -18 146 0
164 2 159 16 -3 9 -6 20 -6 25 0 5 -6 8 -12 7 -7 -1 -78 -5 -158 -8z"/>
<path d="M4407 2123 c-4 -3 -7 -12 -7 -20 0 -10 34 -13 165 -13 158 0 165 1
165 20 0 19 -7 20 -158 20 -87 0 -162 -3 -165 -7z"/>
<path d="M153 2087 c-2 -4 1 -14 7 -22 10 -12 44 -15 165 -15 83 0 154 3 157
6 3 3 4 14 1 24 -5 18 -16 19 -165 17 -88 0 -162 -5 -165 -10z"/>
<path d="M1030 2080 c-11 -20 -8 -20 185 -20 107 0 195 2 195 4 0 2 3 11 6 20
5 14 -15 16 -185 16 -180 0 -191 -1 -201 -20z"/>
<path d="M4387 2033 c-4 -3 -7 -15 -7 -25 0 -17 12 -18 164 -18 l164 0 4 25 5
25 -162 0 c-89 0 -165 -3 -168 -7z"/>
<path d="M1025 2012 c-28 -4 -44 -16 -45 -35 0 -4 86 -6 191 -5 189 3 192 3
200 26 l9 23 -163 -3 c-89 -1 -175 -4 -192 -6z"/>
<path d="M170 2001 c0 -39 8 -41 176 -41 93 0 164 4 164 9 0 39 -8 41 -176 41
-93 0 -164 -4 -164 -9z"/>
<path d="M4360 1931 c-5 -11 -10 -22 -10 -25 0 -3 77 -6 170 -5 94 0 170 4
170 9 0 4 3 15 6 24 5 14 -13 16 -160 16 -153 0 -166 -1 -176 -19z"/>
<path d="M190 1911 c0 -39 7 -41 181 -41 93 0 169 3 169 6 0 3 -5 14 -10 25
-10 18 -23 19 -175 19 -94 0 -165 -4 -165 -9z"/>
<path d="M4337 1853 c-4 -3 -7 -15 -7 -26 0 -18 8 -19 166 -15 162 4 167 4
175 26 l8 22 -168 0 c-92 0 -171 -3 -174 -7z"/>
<path d="M214 1814 c3 -9 6 -20 6 -25 0 -10 308 -13 333 -3 9 3 13 13 10 25
-5 18 -16 19 -180 19 -156 0 -174 -2 -169 -16z"/>
<path d="M4307 1763 c-4 -3 -7 -12 -7 -20 0 -11 33 -13 172 -11 155 3 173 5
176 21 3 16 -10 17 -166 17 -93 0 -172 -3 -175 -7z"/>
<path d="M244 1724 c3 -9 6 -18 6 -20 0 -6 336 -5 343 2 3 3 3 12 0 20 -4 11
-39 14 -180 14 -156 0 -174 -2 -169 -16z"/>
<path d="M4412 1682 c-79 -3 -82 -4 -72 -23 10 -18 20 -19 142 -17 126 3 131
4 139 26 9 23 8 23 -59 20 -37 -2 -104 -4 -150 -6z"/>
<path d="M272 1636 c3 -20 11 -21 133 -24 113 -2 131 0 142 15 7 9 13 21 13
25 0 5 -65 7 -145 6 -141 -2 -146 -3 -143 -22z"/>
<path d="M4387 1570 c5 -18 14 -20 98 -20 90 0 105 5 105 36 0 2 -47 4 -104 4
-99 0 -104 -1 -99 -20z"/>
<path d="M310 1540 c9 -18 21 -20 93 -20 77 0 107 9 107 32 0 4 -47 8 -105 8
-103 0 -105 -1 -95 -20z"/>
<path d="M4448 1503 c-14 -4 -16 -8 -8 -24 20 -36 110 -21 110 18 0 13 -62 17
-102 6z"/>
<path d="M3810 1480 c10 -19 21 -20 206 -20 192 0 195 0 184 20 -10 19 -21 20
-206 20 -192 0 -195 0 -184 -20z"/>
<path d="M340 1472 c0 -2 5 -12 10 -22 18 -34 110 -20 110 16 0 11 -15 13 -60
12 -33 -1 -60 -4 -60 -6z"/>
<path d="M4484 1404 c3 -9 6 -18 6 -20 0 -3 5 -2 10 1 16 10 12 35 -6 35 -11
0 -14 -5 -10 -16z"/>
<path d="M390 1375 c0 -8 5 -15 10 -15 6 0 10 7 10 15 0 8 -4 15 -10 15 -5 0
-10 -7 -10 -15z"/>
<path d="M4000 1136 c0 -3 7 -12 16 -20 13 -13 46 -16 200 -16 101 0 184 2
184 4 0 2 -3 11 -6 20 -5 14 -32 16 -200 16 -107 0 -194 -2 -194 -4z"/>
<path d="M4050 1052 c0 -2 5 -12 10 -23 10 -18 23 -19 200 -19 105 0 190 3
190 6 0 3 -5 14 -11 26 -10 19 -18 20 -200 16 -104 -1 -189 -4 -189 -6z"/>
<path d="M460 1010 c-6 -10 -10 -21 -10 -25 0 -6 381 5 393 12 4 2 7 11 7 19
0 12 -29 14 -190 14 -174 -1 -191 -3 -200 -20z"/>
<path d="M3780 1020 c-12 -8 -11 -10 8 -10 12 0 22 5 22 10 0 13 -11 13 -30 0z"/>
<path d="M1094 1009 c-9 -15 1 -21 26 -17 21 3 21 3 1 15 -14 9 -22 9 -27 2z"/>
<path d="M4128 962 c-31 -4 -35 -14 -14 -31 15 -12 386 -14 386 -2 0 3 -5 13
-10 21 -8 12 -38 15 -172 15 -90 0 -175 -1 -190 -3z"/>
<path d="M3680 940 l-25 -20 104 0 c90 0 102 2 97 16 -3 9 -6 18 -6 20 0 2
-33 4 -72 4 -57 0 -79 -5 -98 -20z"/>
<path d="M412 920 c-12 -20 -10 -20 181 -20 187 0 217 4 217 32 0 4 -87 8
-193 8 -181 0 -193 -1 -205 -20z"/>
<path d="M1047 920 c-5 -19 0 -20 100 -20 l106 0 -26 20 c-20 16 -40 20 -100
20 -66 0 -75 -2 -80 -20z"/>
<path d="M3657 872 c-46 -2 -79 -9 -100 -22 l-32 -20 193 0 c105 0 192 3 192
6 0 3 -4 14 -10 24 -10 19 -41 21 -243 12z"/>
<path d="M4150 867 c0 -33 23 -37 212 -37 103 0 188 3 188 6 0 3 -5 14 -10 25
-10 18 -23 19 -200 19 -149 0 -190 -3 -190 -13z"/>
<path d="M1024 850 c-12 -5 -24 -15 -27 -24 -6 -14 15 -16 188 -16 107 0 195
2 195 5 0 2 -15 12 -32 22 -26 14 -61 18 -168 19 -74 1 -144 -2 -156 -6z"/>
<path d="M362 830 c-13 -22 -11 -23 53 -22 329 1 324 1 335 22 11 20 8 20
-182 20 -182 0 -194 -1 -206 -20z"/>
<path d="M4190 782 c0 -28 30 -32 217 -32 191 0 194 0 183 20 -10 19 -21 20
-205 20 -107 0 -195 -4 -195 -8z"/>
<path d="M3400 759 c-35 -18 -33 -18 264 -19 268 0 298 2 292 16 -3 9 -6 18
-6 20 0 2 -116 4 -257 3 -230 -1 -262 -3 -293 -20z"/>
<path d="M1015 762 c-37 -2 -54 -8 -63 -22 -12 -20 -7 -20 285 -20 l298 1 -40
25 c-40 25 -42 25 -235 22 -107 -2 -218 -4 -245 -6z"/>
<path d="M320 741 c-5 -11 -10 -22 -10 -25 0 -2 86 -2 192 0 186 4 207 8 208
37 0 4 -85 7 -190 7 -177 0 -190 -1 -200 -19z"/>
<path d="M3455 690 c-172 -4 -206 -8 -244 -25 l-43 -20 383 3 c337 2 385 5
401 19 10 9 18 19 18 22 0 7 -245 8 -515 1z"/>
<path d="M4247 694 c-3 -3 -1 -15 6 -25 11 -18 26 -19 204 -19 106 0 193 3
193 8 0 4 -7 15 -14 25 -12 15 -34 17 -198 17 -102 0 -187 -3 -191 -6z"/>
<path d="M1041 672 c-102 -3 -103 -3 -86 -22 17 -19 33 -20 399 -19 l381 1
-50 24 c-49 23 -55 24 -295 21 -135 -1 -292 -3 -349 -5z"/>
<path d="M272 650 c-6 -11 -12 -21 -12 -22 0 -2 86 -2 192 0 186 3 207 6 208
35 0 4 -84 7 -188 7 -176 0 -188 -1 -200 -20z"/>
<path d="M3163 602 l-123 -3 0 -24 0 -25 148 4 c81 3 482 6 892 7 409 1 752 4
762 7 10 2 18 13 18 23 0 19 -18 19 -787 17 -434 -2 -843 -4 -910 -6z"/>
<path d="M192 582 c-142 -3 -143 -3 -140 -25 3 -22 4 -22 183 -21 99 0 507 1
908 2 l727 2 0 27 0 26 -768 -4 c-422 -2 -831 -5 -910 -7z"/>
<path d="M3233 512 c-186 -2 -193 -3 -193 -23 0 -20 5 -20 603 -17 1201 6
1217 6 1217 29 0 20 -5 20 -717 17 -395 -2 -805 -4 -910 -6z"/>
<path d="M303 492 c-245 -2 -253 -3 -253 -22 0 -16 7 -20 33 -20 158 -1 1382
3 1487 5 74 2 174 3 223 4 81 1 87 2 87 22 l0 20 -663 -3 c-364 -2 -776 -4
-914 -6z"/>
<path d="M4740 437 c-3 -2 -381 -7 -840 -11 -459 -3 -841 -6 -847 -6 -18 0
-16 -40 2 -41 8 0 31 -1 50 -1 19 0 422 1 896 1 l860 1 -3 28 c-3 25 -6 27
-58 30 -31 2 -58 1 -60 -1z"/>
<path d="M340 400 l-285 -5 -3 -24 -4 -24 459 6 c252 4 664 7 916 7 l457 0 0
26 0 26 -627 -4 c-346 -1 -756 -5 -913 -8z"/>
<path d="M3133 332 c-86 -3 -93 -4 -93 -23 0 -20 4 -20 833 -17 457 1 867 4
910 6 70 3 77 6 77 24 0 20 0 20 -817 17 -450 -2 -860 -5 -910 -7z"/>
<path d="M382 312 c-307 -2 -322 -3 -322 -21 0 -30 -82 -28 920 -21 333 3 671
6 753 8 140 3 147 4 147 23 0 21 -2 21 -587 17 -324 -1 -733 -4 -911 -6z"/>
<path d="M3767 252 l-728 -2 3 -23 3 -22 200 2 c110 0 518 2 908 2 l707 1 0
26 0 25 -182 -3 c-101 -2 -511 -4 -911 -6z"/>
<path d="M1584 234 c-5 -2 -347 -4 -760 -7 -413 -2 -756 -7 -762 -11 -6 -4 -8
-14 -5 -23 6 -14 48 -15 457 -10 248 4 657 7 909 7 l458 0 -3 23 c-3 22 -5 22
-144 22 -78 1 -146 0 -150 -1z"/>
</g>
</svg>
